<?xml version="1.0" encoding="UTF-8"?>
<svg xmlns="http://www.w3.org/2000/svg"
     width="600" height="651"
     viewBox="0 0 600 651"
     role="img" aria-label="MarkQL logo">
  <g transform="translate(0,651) scale(0.1,-0.1)" stroke="none">
    <path fill="#000000" d="M2480 5150 c-505 -93 -936 -396 -1186 -835 -166 -292 -243 -631 -215 -954 44 -528 314 -989 751 -1282 564 -379 1292 -379 1869 1 l94 62 123 -123 122 -122 -5 -51 c-6 -62 17 -163 52 -221 35 -60 795 -814 853 -847 27 -16 79 -35 115 -44 169 -42 352 50 431 216 29 60 31 73 31 170 0 174 13 156 -452 622 -424 425 -447 444 -567 468 -32 7 -77 9 -100 6 l-41 -6 -125 125 -124 124 24 33 c136 183 240 418 291 654 27 124 38 430 20 556 -102 720 -627 1284 -1342 1439 -141 31 -474 36 -619 9z m507 -329 c542 -94 971 -506 1094 -1051 25 -110 35 -319 20 -437 -39 -320 -178 -594 -413 -818 -271 -259 -598 -384 -973 -372 -217 7 -370 45 -555 137 -359 180 -618 502 -717 894 -34 138 -43 387 -19 531 48 281 170 521 369 724 213 218 483 357 776 400 106 16 303 12 418 -8z"/>
    <path fill="#df3737" d="M2535 4255 c-5 -2 -29 -9 -52 -15 -24 -6 -72 -33 -108 -60 l-65 -49 0 45 0 46 -187 -4 c-210 -4 -240 -12 -280 -71 -17 -24 -23 -48 -23 -85 0 -45 4 -57 33 -89 27 -29 45 -38 93 -48 l59 -12 3 -376 2 -377 -27 -5 c-128 -26 -163 -61 -163 -159 0 -42 22 -84 60 -113 28 -22 124 -33 279 -33 190 0 263 15 303 59 33 37 44 91 29 140 -16 54 -52 83 -119 96 l-57 12 -3 316 -2 316 43 53 c62 76 123 111 192 111 65 0 90 -17 105 -72 6 -22 10 -233 10 -535 l0 -498 183 4 c201 5 238 13 275 65 68 96 14 214 -106 231 l-47 7 -2 320 -3 320 58 61 c31 34 71 68 87 76 71 36 158 26 182 -22 10 -19 13 -146 13 -542 l0 -518 155 0 c265 0 335 31 335 151 0 81 -64 149 -143 149 -47 0 -46 -6 -49 415 l-3 400 -31 65 c-99 208 -349 286 -576 179 -34 -17 -78 -42 -96 -55 -35 -27 -35 -28 -104 27 -76 59 -197 94 -253 74z"/>
  </g>
</svg>
